<svg width="135" height="31" viewBox="0 0 135 31" fill="none" xmlns="http://www.w3.org/2000/svg">
<g clip-path="url(#clip0_17756_185731)">
<g clip-path="url(#clip1_17756_185731)">
<mask id="mask0_17756_185731" style="mask-type:luminance" maskUnits="userSpaceOnUse" x="0" y="-1" width="135" height="32">
<path d="M134.974 -0.00195312H0.0078125V30.3325H134.974V-0.00195312Z" fill="white"/>
</mask>
<g mask="url(#mask0_17756_185731)">
<path fill-rule="evenodd" clip-rule="evenodd" d="M23.581 11.9763C24.0871 11.1118 24.4853 10.1934 24.7485 9.24188C26.1602 4.13611 23.166 -0.00195312 18.0609 -0.00195312C18.0198 -0.00195312 17.9779 7.13692e-05 17.9367 0.000746198L17.9374 -0.00195312H13.5159C12.1757 -0.00195312 11.0514 0.836189 10.7032 2.09609L9.31171 7.1816H15.7469L15.7463 7.18231C15.757 7.18231 15.7672 7.1816 15.778 7.1816C17.0716 7.1816 17.8301 8.2303 17.4724 9.52331C17.1141 10.8169 15.7766 11.865 14.483 11.865C14.4721 11.865 14.4621 11.8643 14.4519 11.8643L8.01605 11.865L9.31171 7.1816H5.3808C4.03993 7.1816 2.91633 8.02046 2.56812 9.27965L0.0078125 18.4857H17.1749C17.1856 18.4857 17.1957 18.4857 17.2059 18.4857C18.4996 18.4857 19.258 19.5337 18.9004 20.8267C18.5427 22.1203 17.2045 23.1684 15.9109 23.1684C15.9007 23.1684 15.8907 23.1677 15.8798 23.1677L7.10837 23.1684C5.76816 23.1684 4.64389 24.0072 4.29569 25.2671L2.96762 30.0705H15.7854L15.786 30.0679C15.8272 30.0685 15.867 30.0705 15.9089 30.0705C21.014 30.0705 26.2965 25.9325 27.7083 20.8267C28.8629 16.6502 27.0679 13.1222 23.581 11.9763Z" fill="#FF500F"/>
<path fill-rule="evenodd" clip-rule="evenodd" d="M67.8193 11.6152H64.7736C62.0364 11.6152 61.4922 13.0681 61.1902 14.7916L59.6172 23.7831H61.2443C62.1033 23.7831 62.8374 23.1656 62.9852 22.3201L64.0737 16.0994C64.2838 14.9016 65.1622 14.3577 66.0766 14.3577C67.0342 14.3577 67.3529 14.9016 67.1815 15.8815C65.8256 23.6306 65.7988 23.7831 65.9074 23.7831H67.4536C68.3144 23.7831 69.0499 23.1649 69.1954 22.3153C69.3998 21.1195 69.7774 18.9573 70.4611 15.0541C70.8493 12.8339 70.0611 11.6152 67.8193 11.6152Z" fill="#FF500F"/>
<path fill-rule="evenodd" clip-rule="evenodd" d="M35.6837 11.8633C35.6837 11.8633 34.1086 20.9297 33.7847 22.7793C33.6355 23.6283 33.6132 23.7593 33.6963 23.7808H35.6837C36.2971 23.7808 36.8214 23.3401 36.9267 22.7362C37.1514 21.4519 38.819 11.8633 38.819 11.8633H35.6837Z" fill="#FF500F"/>
<path fill-rule="evenodd" clip-rule="evenodd" d="M46.3191 11.6152H43.2735C40.5364 11.6152 39.9919 13.0681 39.6902 14.7916L38.1172 23.7831H39.7442C40.6032 23.7831 41.3374 23.1656 41.4852 22.3201L42.5737 16.0994C42.7836 14.9016 43.6622 14.3577 44.576 14.3577C45.5344 14.3577 45.8526 14.9016 45.6812 15.8815C44.3254 23.6306 44.2986 23.7831 44.4072 23.7831H45.9533C46.8146 23.7831 47.5501 23.1649 47.6952 22.3153C47.8996 21.1195 48.2772 18.9573 48.9609 15.0541C49.3491 12.8339 48.5608 11.6152 46.3191 11.6152Z" fill="#FF500F"/>
<path fill-rule="evenodd" clip-rule="evenodd" d="M54.5143 11.8615L54.7807 10.4978H56.2755L56.8141 7.16406H56.7912H56.6189H55.5611H55.5554C53.5674 7.16406 51.8669 8.59337 51.5239 10.5517L51.3292 11.84C50.5111 11.84 49.8112 12.4277 49.671 13.2335L49.4423 14.5089H50.8575L49.2344 23.7818H50.9384C51.7966 23.7818 52.5316 23.1643 52.6793 22.3187L54.0576 14.4435H56.6699C56.4861 15.4895 55.0415 23.7818 55.0415 23.7818H57.2084C57.8028 23.7818 58.3102 23.3539 58.4121 22.7689L58.4183 22.7365C58.6429 21.4522 60.3258 11.8615 60.3258 11.8615H54.5143Z" fill="#FF500F"/>
<path fill-rule="evenodd" clip-rule="evenodd" d="M100.572 16.0394C100.45 16.7386 99.9403 19.4939 99.9403 19.4939C99.731 20.6911 98.8733 21.235 97.9602 21.235C97.0017 21.235 96.6619 20.6911 96.8326 19.7112C96.9547 19.0121 97.7722 14.5157 97.7722 14.5157H99.5649L99.5634 14.5224C100.442 14.5609 100.737 15.0953 100.572 16.0394ZM101.21 11.6139H98.3053L99.0879 7.16406H97.4165C96.5573 7.16406 95.8232 7.78154 95.6745 8.62712L94.6659 14.355C94.6356 14.4981 94.6068 14.6425 94.581 14.7896L94.0554 17.796C94.0554 17.796 93.7559 19.5061 93.5754 20.5386C93.1871 22.7587 93.975 23.9774 96.2168 23.9774H99.2631C102 23.9774 102.544 22.5246 102.846 20.8017C102.846 20.8017 103.671 16.0854 103.851 15.0528C104.24 12.8327 103.452 11.6139 101.21 11.6139Z" fill="#FF500F"/>
<path fill-rule="evenodd" clip-rule="evenodd" d="M110.566 19.7759C110.418 20.6208 109.684 21.2363 108.827 21.2363H108.517L108.519 21.2288C107.64 21.1911 107.345 20.6566 107.51 19.7125C107.55 19.483 107.627 18.4937 108.843 18.4937H110.791C110.713 18.9358 110.635 19.3791 110.566 19.7759ZM114.507 15.0541C114.896 12.8339 114.107 11.6152 111.866 11.6152H107.53C106.683 11.6152 105.954 12.2159 105.795 13.0479L105.512 14.517H110.662C111.013 14.517 111.258 14.7768 111.246 15.1155C111.245 15.1479 111.214 15.3781 111.199 15.4307C111.127 15.7067 110.876 15.9105 110.577 15.9105H107.826C106.216 15.9105 104.867 16.9079 104.587 18.4937L104.231 20.5398C103.845 22.7601 104.631 23.9788 106.873 23.9788H109.919C112.656 23.9788 113.2 22.5259 113.502 20.8023L114.027 17.7966C114.027 17.7966 114.326 16.0866 114.507 15.0541Z" fill="#FF500F"/>
<path fill-rule="evenodd" clip-rule="evenodd" d="M119.733 14.517H119.743H124.356L124.623 13.0539C124.76 12.263 124.214 11.6152 123.41 11.6152H119.252C115.553 11.6152 115.219 14.5386 115.625 15.9443C115.702 16.2135 116.005 16.615 116.149 16.7453L118.931 19.917C119.494 20.5257 119.484 21.1243 118.661 21.1243H115.392C114.875 21.1243 114.432 21.4967 114.345 22.0069L114.008 23.9788H119.987C121.642 23.9788 122.67 23.2027 123.303 21.963C123.44 21.6938 123.801 20.2612 122.973 19.3596L119.41 15.482C119.049 15.1581 119.247 14.5237 119.733 14.517Z" fill="#FF500F"/>
<path fill-rule="evenodd" clip-rule="evenodd" d="M72.3856 11.8633C72.2599 12.5793 70.7853 21.0086 70.4758 22.7793C70.3273 23.6283 70.3044 23.7593 70.3879 23.7808H72.3746C72.9884 23.7808 73.5124 23.3401 73.6183 22.7362C73.8337 21.5053 75.3918 12.5995 75.5206 11.8633H72.3856Z" fill="#FF500F"/>
<path fill-rule="evenodd" clip-rule="evenodd" d="M131.599 15.8815C131.559 16.1109 131.483 17.1002 130.265 17.1002H128.318C128.395 16.6582 128.474 16.2149 128.543 15.818C128.691 14.9731 129.425 14.3577 130.282 14.3577H130.592L130.591 14.3651C131.469 14.4036 131.765 14.9381 131.599 15.8815ZM132.237 11.6152H129.192C126.454 11.6152 125.91 13.0688 125.608 14.791L125.083 17.7973C125.083 17.7973 124.783 19.508 124.603 20.5398C124.214 22.7601 125.002 23.9794 127.244 23.9794H131.58C132.428 23.9794 133.156 23.3775 133.316 22.5461L133.597 21.0777H128.448C128.097 21.0777 127.852 20.8172 127.864 20.4784C127.865 20.4467 127.896 20.2159 127.91 20.164C127.982 19.8873 128.235 19.6835 128.533 19.6835H131.283C132.894 19.6835 134.243 18.6861 134.523 17.1002L134.879 15.0541C135.265 12.8339 134.479 11.6152 132.237 11.6152Z" fill="#FF500F"/>
<path fill-rule="evenodd" clip-rule="evenodd" d="M89.4944 12.9122C88.5434 15.0548 86.5034 19.6957 86.4572 19.863C86.4663 19.7267 86.0545 15.9254 85.8133 13.5999C85.7125 12.6349 84.8585 11.8636 83.8939 11.8636H80.4509L81.2616 7.16406H79.5902C78.7317 7.16406 77.9969 7.78086 77.849 8.62712L77.2939 11.8636H77.262C76.5044 11.8636 75.8879 12.3744 75.7605 13.106L75.5195 14.5089H76.848L75.7719 20.5028C75.4017 22.4612 76.5825 23.8905 78.571 23.8905H78.5755H79.6342H79.8056H79.8291L80.5601 20.0742H79.0298L80.0035 14.5089H82.7746L84.104 23.607L81.4543 28.9888C85.014 28.9888 85.2559 27.8632 86.1387 26.0836L93.1808 11.8636H91.109C90.4098 11.8636 89.7773 12.2732 89.4944 12.9122Z" fill="#FF500F"/>
<path fill-rule="evenodd" clip-rule="evenodd" d="M39.7084 7.16406H37.9721C37.1137 7.16406 36.3789 7.78154 36.2311 8.62712L35.8828 10.4971H39.1018L39.7084 7.16406Z" fill="#FF500F"/>
<path fill-rule="evenodd" clip-rule="evenodd" d="M61.1795 7.16406H59.4438C58.5847 7.16406 57.8497 7.78154 57.702 8.62712L57.3828 10.4971H60.6044L61.1795 7.16406Z" fill="#FF500F"/>
<path fill-rule="evenodd" clip-rule="evenodd" d="M76.3829 7.16406H74.6465C73.7879 7.16406 73.0532 7.78154 72.9055 8.62712L72.5859 10.4971H75.808L76.3829 7.16406Z" fill="#FF500F"/>
</g>
</g>
</g>
<defs>
<clipPath id="clip0_17756_185731">
<rect width="135" height="30.3345" fill="white"/>
</clipPath>
<clipPath id="clip1_17756_185731">
<rect width="134.989" height="30.3345" fill="white" transform="translate(0.00390625)"/>
</clipPath>
</defs>
</svg>
